<mxfile host="app.diagrams.net" modified="2023-06-13T04:23:44.816Z" agent="Mozilla/5.0 (Windows NT 10.0; Win64; x64) AppleWebKit/537.36 (KHTML, like Gecko) Chrome/114.0.0.0 Safari/537.36" etag="32qJijUEuYPB--_d_ZB2" version="21.3.7" type="device">
  <diagram name="페이지-1" id="JFNyWYRkcX-16YhWIMaq">
    <mxGraphModel dx="1687" dy="927" grid="1" gridSize="10" guides="1" tooltips="1" connect="1" arrows="1" fold="1" page="1" pageScale="1" pageWidth="4681" pageHeight="3300" math="0" shadow="0">
      <root>
        <mxCell id="0" />
        <mxCell id="1" parent="0" />
        <mxCell id="c2Ikrf-RcJ23s50rD_o9-3" style="edgeStyle=orthogonalEdgeStyle;rounded=0;orthogonalLoop=1;jettySize=auto;html=1;entryX=0;entryY=0.5;entryDx=0;entryDy=0;" parent="1" source="qZjTC25rmEx37F5F7flD-1" target="qZjTC25rmEx37F5F7flD-2" edge="1">
          <mxGeometry relative="1" as="geometry" />
        </mxCell>
        <mxCell id="c2Ikrf-RcJ23s50rD_o9-4" style="edgeStyle=orthogonalEdgeStyle;rounded=0;orthogonalLoop=1;jettySize=auto;html=1;entryX=0;entryY=0.5;entryDx=0;entryDy=0;" parent="1" source="qZjTC25rmEx37F5F7flD-1" target="1gyeTYRWuuRDDBSzjife-7" edge="1">
          <mxGeometry relative="1" as="geometry" />
        </mxCell>
        <mxCell id="c2Ikrf-RcJ23s50rD_o9-14" style="edgeStyle=orthogonalEdgeStyle;rounded=0;orthogonalLoop=1;jettySize=auto;html=1;entryX=0;entryY=0.5;entryDx=0;entryDy=0;" parent="1" source="qZjTC25rmEx37F5F7flD-1" target="c2Ikrf-RcJ23s50rD_o9-13" edge="1">
          <mxGeometry relative="1" as="geometry" />
        </mxCell>
        <mxCell id="9O19MSYBn1CitsJCOuEC-12" style="edgeStyle=orthogonalEdgeStyle;rounded=0;orthogonalLoop=1;jettySize=auto;html=1;entryX=0;entryY=0.5;entryDx=0;entryDy=0;" edge="1" parent="1" source="qZjTC25rmEx37F5F7flD-1" target="9O19MSYBn1CitsJCOuEC-10">
          <mxGeometry relative="1" as="geometry" />
        </mxCell>
        <mxCell id="9O19MSYBn1CitsJCOuEC-13" style="edgeStyle=orthogonalEdgeStyle;rounded=0;orthogonalLoop=1;jettySize=auto;html=1;entryX=0;entryY=0.5;entryDx=0;entryDy=0;" edge="1" parent="1" source="qZjTC25rmEx37F5F7flD-1" target="9O19MSYBn1CitsJCOuEC-11">
          <mxGeometry relative="1" as="geometry" />
        </mxCell>
        <mxCell id="qZjTC25rmEx37F5F7flD-1" value="메인화면" style="rounded=1;whiteSpace=wrap;html=1;" parent="1" vertex="1">
          <mxGeometry x="370" y="400" width="160" height="80" as="geometry" />
        </mxCell>
        <mxCell id="c2Ikrf-RcJ23s50rD_o9-6" style="edgeStyle=orthogonalEdgeStyle;rounded=0;orthogonalLoop=1;jettySize=auto;html=1;entryX=0;entryY=0.5;entryDx=0;entryDy=0;" parent="1" source="qZjTC25rmEx37F5F7flD-2" target="1gyeTYRWuuRDDBSzjife-1" edge="1">
          <mxGeometry relative="1" as="geometry" />
        </mxCell>
        <mxCell id="qZjTC25rmEx37F5F7flD-2" value="지역 선택" style="ellipse;whiteSpace=wrap;html=1;" parent="1" vertex="1">
          <mxGeometry x="710" y="240" width="120" height="80" as="geometry" />
        </mxCell>
        <mxCell id="9O19MSYBn1CitsJCOuEC-1" style="edgeStyle=orthogonalEdgeStyle;rounded=0;orthogonalLoop=1;jettySize=auto;html=1;entryX=0;entryY=0.5;entryDx=0;entryDy=0;" edge="1" parent="1">
          <mxGeometry relative="1" as="geometry">
            <mxPoint x="990" y="279.9999999999998" as="sourcePoint" />
            <mxPoint x="1030" y="279.9999999999998" as="targetPoint" />
          </mxGeometry>
        </mxCell>
        <mxCell id="1gyeTYRWuuRDDBSzjife-1" value="출발 지역&lt;br&gt;(터미널, 정류소)" style="ellipse;whiteSpace=wrap;html=1;" parent="1" vertex="1">
          <mxGeometry x="890" y="240" width="120" height="80" as="geometry" />
        </mxCell>
        <mxCell id="9O19MSYBn1CitsJCOuEC-14" style="edgeStyle=orthogonalEdgeStyle;rounded=0;orthogonalLoop=1;jettySize=auto;html=1;entryX=0;entryY=0.5;entryDx=0;entryDy=0;entryPerimeter=0;" edge="1" parent="1" source="1gyeTYRWuuRDDBSzjife-3" target="c2Ikrf-RcJ23s50rD_o9-1">
          <mxGeometry relative="1" as="geometry" />
        </mxCell>
        <mxCell id="1gyeTYRWuuRDDBSzjife-3" value="도착지역&lt;br&gt;(터미널,정류소)" style="ellipse;whiteSpace=wrap;html=1;" parent="1" vertex="1">
          <mxGeometry x="1050" y="240" width="120" height="80" as="geometry" />
        </mxCell>
        <mxCell id="9O19MSYBn1CitsJCOuEC-16" style="edgeStyle=orthogonalEdgeStyle;rounded=0;orthogonalLoop=1;jettySize=auto;html=1;entryX=0;entryY=0.5;entryDx=0;entryDy=0;entryPerimeter=0;" edge="1" parent="1" source="1gyeTYRWuuRDDBSzjife-5" target="c2Ikrf-RcJ23s50rD_o9-1">
          <mxGeometry relative="1" as="geometry">
            <Array as="points">
              <mxPoint x="1190" y="580" />
              <mxPoint x="1190" y="635" />
            </Array>
          </mxGeometry>
        </mxCell>
        <mxCell id="1gyeTYRWuuRDDBSzjife-5" value="즐겨찾기" style="ellipse;whiteSpace=wrap;html=1;" parent="1" vertex="1">
          <mxGeometry x="890" y="537.5" width="120" height="80" as="geometry" />
        </mxCell>
        <mxCell id="9O19MSYBn1CitsJCOuEC-8" style="edgeStyle=orthogonalEdgeStyle;rounded=0;orthogonalLoop=1;jettySize=auto;html=1;entryX=0;entryY=0.5;entryDx=0;entryDy=0;" edge="1" parent="1" source="1gyeTYRWuuRDDBSzjife-7" target="9O19MSYBn1CitsJCOuEC-4">
          <mxGeometry relative="1" as="geometry" />
        </mxCell>
        <mxCell id="1gyeTYRWuuRDDBSzjife-7" value="터미널 위치 조회" style="ellipse;whiteSpace=wrap;html=1;" parent="1" vertex="1">
          <mxGeometry x="710" y="400" width="120" height="80" as="geometry" />
        </mxCell>
        <mxCell id="c2Ikrf-RcJ23s50rD_o9-1" value="" style="shape=cylinder3;whiteSpace=wrap;html=1;boundedLbl=1;backgroundOutline=1;size=15;" parent="1" vertex="1">
          <mxGeometry x="1350" y="560" width="160" height="150" as="geometry" />
        </mxCell>
        <mxCell id="c2Ikrf-RcJ23s50rD_o9-13" value="예매 홈페이지 이동" style="ellipse;whiteSpace=wrap;html=1;" parent="1" vertex="1">
          <mxGeometry x="710" y="920" width="120" height="80" as="geometry" />
        </mxCell>
        <mxCell id="9O19MSYBn1CitsJCOuEC-9" style="edgeStyle=orthogonalEdgeStyle;rounded=0;orthogonalLoop=1;jettySize=auto;html=1;entryX=0;entryY=0.5;entryDx=0;entryDy=0;" edge="1" parent="1" source="9O19MSYBn1CitsJCOuEC-4" target="9O19MSYBn1CitsJCOuEC-5">
          <mxGeometry relative="1" as="geometry" />
        </mxCell>
        <mxCell id="9O19MSYBn1CitsJCOuEC-4" value="구 선택&lt;br&gt;ex) 북구" style="ellipse;whiteSpace=wrap;html=1;" vertex="1" parent="1">
          <mxGeometry x="890" y="400" width="120" height="80" as="geometry" />
        </mxCell>
        <mxCell id="9O19MSYBn1CitsJCOuEC-15" style="edgeStyle=orthogonalEdgeStyle;rounded=0;orthogonalLoop=1;jettySize=auto;html=1;entryX=0;entryY=0.5;entryDx=0;entryDy=0;entryPerimeter=0;" edge="1" parent="1" source="9O19MSYBn1CitsJCOuEC-5" target="c2Ikrf-RcJ23s50rD_o9-1">
          <mxGeometry relative="1" as="geometry" />
        </mxCell>
        <mxCell id="9O19MSYBn1CitsJCOuEC-5" value="터미널(정류소) 선택" style="ellipse;whiteSpace=wrap;html=1;" vertex="1" parent="1">
          <mxGeometry x="1050" y="400" width="120" height="80" as="geometry" />
        </mxCell>
        <mxCell id="9O19MSYBn1CitsJCOuEC-21" style="edgeStyle=orthogonalEdgeStyle;rounded=0;orthogonalLoop=1;jettySize=auto;html=1;entryX=0;entryY=0.5;entryDx=0;entryDy=0;" edge="1" parent="1" source="9O19MSYBn1CitsJCOuEC-10" target="9O19MSYBn1CitsJCOuEC-20">
          <mxGeometry relative="1" as="geometry" />
        </mxCell>
        <mxCell id="9O19MSYBn1CitsJCOuEC-23" style="edgeStyle=orthogonalEdgeStyle;rounded=0;orthogonalLoop=1;jettySize=auto;html=1;entryX=0;entryY=0.5;entryDx=0;entryDy=0;" edge="1" parent="1" source="9O19MSYBn1CitsJCOuEC-10" target="1gyeTYRWuuRDDBSzjife-5">
          <mxGeometry relative="1" as="geometry" />
        </mxCell>
        <mxCell id="9O19MSYBn1CitsJCOuEC-10" value="로그인" style="ellipse;whiteSpace=wrap;html=1;" vertex="1" parent="1">
          <mxGeometry x="710" y="660" width="120" height="80" as="geometry" />
        </mxCell>
        <mxCell id="9O19MSYBn1CitsJCOuEC-18" style="edgeStyle=orthogonalEdgeStyle;rounded=0;orthogonalLoop=1;jettySize=auto;html=1;entryX=0;entryY=0.5;entryDx=0;entryDy=0;" edge="1" parent="1" source="9O19MSYBn1CitsJCOuEC-11" target="9O19MSYBn1CitsJCOuEC-17">
          <mxGeometry relative="1" as="geometry" />
        </mxCell>
        <mxCell id="9O19MSYBn1CitsJCOuEC-11" value="회원가입" style="ellipse;whiteSpace=wrap;html=1;" vertex="1" parent="1">
          <mxGeometry x="710" y="790" width="120" height="80" as="geometry" />
        </mxCell>
        <mxCell id="9O19MSYBn1CitsJCOuEC-19" style="edgeStyle=orthogonalEdgeStyle;rounded=0;orthogonalLoop=1;jettySize=auto;html=1;entryX=0;entryY=0.5;entryDx=0;entryDy=0;entryPerimeter=0;" edge="1" parent="1" source="9O19MSYBn1CitsJCOuEC-17" target="c2Ikrf-RcJ23s50rD_o9-1">
          <mxGeometry relative="1" as="geometry" />
        </mxCell>
        <mxCell id="9O19MSYBn1CitsJCOuEC-17" value="유효성 검사&lt;br&gt;(이메일 형식, 패스워드)" style="rounded=0;whiteSpace=wrap;html=1;" vertex="1" parent="1">
          <mxGeometry x="890" y="795" width="140" height="70" as="geometry" />
        </mxCell>
        <mxCell id="9O19MSYBn1CitsJCOuEC-22" style="edgeStyle=orthogonalEdgeStyle;rounded=0;orthogonalLoop=1;jettySize=auto;html=1;entryX=0;entryY=0.5;entryDx=0;entryDy=0;entryPerimeter=0;" edge="1" parent="1" source="9O19MSYBn1CitsJCOuEC-20" target="c2Ikrf-RcJ23s50rD_o9-1">
          <mxGeometry relative="1" as="geometry" />
        </mxCell>
        <mxCell id="9O19MSYBn1CitsJCOuEC-20" value="유효성 검사&lt;br&gt;(이메일 형식, 패스워드)" style="rounded=0;whiteSpace=wrap;html=1;" vertex="1" parent="1">
          <mxGeometry x="890" y="665" width="140" height="70" as="geometry" />
        </mxCell>
      </root>
    </mxGraphModel>
  </diagram>
</mxfile>
